<svg xmlns="http://www.w3.org/2000/svg" viewBox="0 0 151.04 237.04"><defs><style>.a{fill:#fc556f;}.b{fill:#fb8e9d;}.c{fill:#fa6579;}.d{fill:#fb7f90;}.e{fill:#e03b59;}.f{fill:#ed4763;}.g{fill:#fca4b0;}.h,.i,.j{fill:#fff;}.i{opacity:0.7;}.j{opacity:0.8;}</style></defs><title>Asset 4</title><polygon class="a" points="106.8 237.04 151.04 192.8 151.04 44.42 106.8 0.18 44.24 0.18 0 44.42 0 192.8 44.24 237.04 106.8 237.04"/><polygon class="b" points="96.03 211.04 125.04 182.03 125.04 55.19 96.03 26.18 55.01 26.18 26 55.19 26 182.03 55.01 211.04 96.03 211.04"/><polygon class="b" points="0 44.63 26 55.4 55.01 26.39 44.24 0.39 0 44.63"/><polygon class="c" points="151.04 44.42 125.04 55.19 96.03 26.18 106.8 0.18 151.04 44.42"/><polygon class="d" points="44.24 0.18 106.8 0.18 96.03 26.18 55.01 26.18 44.24 0.18"/><polygon class="e" points="151.04 192.8 125.04 182.03 96.03 211.04 106.8 237.04 151.04 192.8"/><polygon class="a" points="0 192.8 26 182.03 55.01 211.04 44.24 237.04 0 192.8"/><polygon class="f" points="106.8 237.04 44.24 237.04 55.01 211.04 96.03 211.04 106.8 237.04"/><polygon class="g" points="55.01 26.18 26 55.19 26 182.03 55.01 211.04 96.03 26.18 55.01 26.18"/><polygon class="d" points="0 44.42 0 192.8 26 182.03 26 55.19 0 44.42"/><rect class="h" x="42.68" y="23.82" width="23.3" height="23.3" transform="translate(-9.17 48.81) rotate(-45)"/><rect class="i" x="21.75" y="46.96" width="13.61" height="13.61" transform="translate(-29.66 35.95) rotate(-45)"/><rect class="j" x="38.23" y="2.82" width="13.61" height="13.61" transform="translate(6.39 34.67) rotate(-45)"/></svg>