<svg xmlns="http://www.w3.org/2000/svg" viewBox="0 0 218.5 177.4"><defs><style>.a{fill:#f9a50d;}.b{fill:#f96f00;}.c{fill:#f9af0d;}.d{fill:#f98500;}.e{fill:#f9930d;}.f{fill:#f9c30d;}.g,.h,.i{fill:#fff;}.g{opacity:0.8;}.i{opacity:0.7;}</style></defs><title>Asset 5</title><polygon class="a" points="109.34 177.4 109.25 143.78 29.6 55.25 0 56.06 109.34 177.4"/><polygon class="b" points="218.5 56.06 172.73 0 45.76 0 0 56.06 109.33 177.4 109.34 175.62 109.34 177.4 218.5 56.06"/><polygon class="c" points="29.6 55.25 55.09 24.02 163.4 24.02 188.89 55.25 109.25 143.78 29.6 55.25"/><polygon class="d" points="218.5 56.06 188.89 55.25 163.4 24.02 172.73 0 218.5 56.06"/><polygon class="c" points="0 56.06 29.6 55.25 55.09 24.02 45.76 0 0 56.06"/><polygon class="e" points="172.73 0 45.76 0 55.09 24.02 163.4 24.02 172.73 0"/><polygon class="d" points="109.33 177.4 109.25 143.78 127.21 157.53 109.33 177.4"/><polygon class="f" points="55.09 24.02 29.6 55.25 109.25 143.78 55.09 24.02"/><rect class="g" x="53.35" y="43.52" width="23.3" height="23.3" transform="translate(-19.98 62.13) rotate(-45)"/><rect class="h" x="32.42" y="66.66" width="13.61" height="13.61" transform="translate(-40.46 49.27) rotate(-45.01)"/><rect class="i" x="48.9" y="22.52" width="13.61" height="13.61" transform="translate(-4.42 47.98) rotate(-45)"/></svg>