<svg xmlns="http://www.w3.org/2000/svg" viewBox="0 0 231.94 180.81"><defs><style>.a{fill:#18bedb;}.b{fill:#16acda;}.c{fill:#5fd2e6;}.d{fill:#00a1d7;}.e{fill:#3bc8e0;}.f{fill:#0093d7;}.g,.h{fill:#fff;}.h{opacity:0.7;}</style></defs><title>Asset 2</title><polygon class="a" points="231.94 57.13 189 0 42.94 0 0 57.13 115.87 180.81 116.07 179 116.07 180.81 231.94 57.13"/><polygon class="b" points="231.94 57.13 189 0 42.94 0 0 57.13 231.94 57.13"/><polygon class="c" points="120.05 57.13 115.97 0 42.94 0 0 57.13 120.05 57.13"/><polygon class="d" points="231.94 57.13 154.83 57.13 189 0 231.94 57.13"/><polygon class="e" points="0 57.13 77.11 57.13 42.93 0 0 57.13"/><polygon class="a" points="154.83 57.13 77.11 57.13 115.97 0 154.83 57.13"/><polygon class="b" points="154.83 57.13 77.11 57.13 115.97 180.81 154.83 57.13"/><polygon class="f" points="231.94 57.13 115.97 180.81 154.83 57.13 231.94 57.13"/><rect class="g" x="68.7" y="42.35" width="23.3" height="23.3" transform="translate(-14.65 72.63) rotate(-45)"/><rect class="h" x="47.77" y="65.49" width="13.61" height="13.61" transform="translate(-35.13 59.77) rotate(-45.01)"/><rect class="h" x="64.25" y="21.34" width="13.61" height="13.61" transform="translate(0.91 58.49) rotate(-45)"/></svg>