<svg xmlns="http://www.w3.org/2000/svg" viewBox="0 0 215.55 186.67"><defs><style>.a{fill:#28ca89;}.b{fill:#45e3aa;}.c{fill:#1ddd98;}.d{fill:#0cc379;}.e{fill:#45ffba;}.f,.g{fill:#fff;}.f{opacity:0.7;}</style></defs><title>Asset 3</title><polygon class="a" points="0 186.67 107.77 0 215.55 186.67 0 186.67"/><polygon class="b" points="49.67 157.99 107.77 57.35 165.88 157.99 49.67 157.99"/><polygon class="c" points="107.77 0 107.77 57.35 49.67 157.99 0 186.67 107.77 0"/><polygon class="d" points="215.55 186.67 165.88 157.99 49.67 157.99 0 186.67 215.55 186.67"/><polygon class="e" points="107.77 57.35 87.52 157.99 49.67 157.99 107.77 57.35"/><rect class="f" x="94.19" y="54.99" width="23.3" height="23.3" transform="translate(-16.12 94.36) rotate(-45)"/><rect class="g" x="73.26" y="78.12" width="13.61" height="13.61" transform="translate(-36.6 81.5) rotate(-45.01)"/><rect class="g" x="89.74" y="33.98" width="13.61" height="13.61" transform="translate(-0.56 80.22) rotate(-45)"/></svg>