<svg xmlns="http://www.w3.org/2000/svg" viewBox="0 0 123.21 226.1"><defs><style>.a{fill:#f96f00;}.b{fill:#45e3aa;}.c{fill:#f9af0d;}.d{fill:#f9c30d;}.e{fill:#f9930d;}.f{fill:#f98500;}.g{fill:#f95600;}.h,.i,.j{fill:#fff;}.i{opacity:0.7;}.j{opacity:0.8;}</style></defs><title>Asset 6</title><polygon class="a" points="123.21 31.89 61.6 0 0 31.89 0 194.22 61.6 226.1 123.21 194.22 123.21 31.89"/><polygon class="b" points="91.81 177.96 91.81 48.14 61.6 32.51 31.4 48.14 31.4 177.96 61.6 193.59 91.81 177.96"/><polygon class="c" points="91.81 177.96 91.81 48.14 61.6 32.51 31.4 48.14 31.4 177.96 61.6 193.59 91.81 177.96"/><polygon class="d" points="61.6 32.51 31.4 48.14 31.4 177.96 61.6 193.59 61.6 32.51"/><polygon class="e" points="0 31.89 31.4 48.14 61.6 32.51 61.6 0 0 31.89"/><polygon class="c" points="0 31.89 31.4 48.14 31.4 177.96 0 194.22 0 31.89"/><polygon class="f" points="123.21 31.89 91.81 48.14 61.6 32.51 61.6 0 123.21 31.89"/><polygon class="g" points="123.21 194.22 91.81 177.96 61.6 193.59 61.6 226.1 123.21 194.22"/><polygon class="a" points="0 194.22 31.4 177.96 61.6 193.59 61.6 226.1 0 194.22"/><rect class="h" x="70.25" y="35.16" width="23.3" height="23.3" transform="translate(-9.11 71.63) rotate(-45)"/><rect class="i" x="49.32" y="58.29" width="13.61" height="13.61" transform="translate(-29.59 58.76) rotate(-45.01)"/><rect class="j" x="65.8" y="14.15" width="13.61" height="13.61" transform="translate(6.45 57.48) rotate(-45)"/></svg>