<svg xmlns="http://www.w3.org/2000/svg" viewBox="0 0 186.13 197.83"><defs><style>.a{fill:#a055b8;}.b{fill:#bd5ab8;}.c{fill:#a45dbb;}.d{fill:#9a4ab4;}.e{fill:#9d50b6;}.f{fill:#c061bb;}.g{fill:#a755b6;}.h{fill:#d364bc;}.i,.j{fill:#fff;}.i{opacity:0.7;}</style></defs><title>Asset 8</title><polygon class="a" points="186.13 47.72 93.07 0 0 47.72 0 150.11 93.07 197.83 186.13 150.11 186.13 47.72"/><polygon class="b" points="0 47.72 47.44 72.04 93.07 48.65 93.07 0 0 47.72"/><polygon class="c" points="186.13 47.72 138.7 72.04 93.07 48.65 93.07 0 186.13 47.72"/><polygon class="d" points="186.13 150.11 138.7 125.78 93.07 149.18 93.07 197.83 186.13 150.11"/><polygon class="e" points="0 150.11 47.44 125.78 93.07 149.18 93.07 197.83 0 150.11"/><polygon class="f" points="151.25 133.17 151.25 64.65 93.07 34.82 34.89 64.65 34.89 133.17 93.07 163.01 151.25 133.17"/><polygon class="g" points="0 47.72 0 150.11 34.89 133.17 34.89 64.65 0 47.72"/><polygon class="h" points="34.89 64.65 93.07 34.82 93.07 163.01 34.89 133.17 34.89 64.65"/><rect class="i" x="81.15" y="84.31" width="23.3" height="23.3" transform="translate(-40.67 93.73) rotate(-45)"/><rect class="j" x="60.22" y="107.44" width="13.61" height="13.61" transform="translate(-61.16 80.87) rotate(-45.01)"/><rect class="i" x="76.7" y="63.3" width="13.61" height="13.61" transform="translate(-25.11 79.59) rotate(-45)"/></svg>