<svg xmlns="http://www.w3.org/2000/svg" viewBox="0 0 214.73 214.73"><defs><style>.a{fill:#fa536d;}.b{fill:#fa6a7d;}.c{fill:#d0314d;}.d{fill:#ff7485;}.e{fill:#ff8694;}.f,.g{fill:#fff;}.f{opacity:0.7;}</style></defs><title>Asset 7</title><polygon class="a" points="214.73 107.37 107.36 0 107.36 107.37 214.73 107.37"/><polygon class="b" points="107.36 107.37 107.36 0 0 107.37 107.36 107.37"/><polygon class="c" points="107.36 214.73 214.73 107.37 107.36 107.37 107.36 214.73"/><polygon class="a" points="0 107.37 107.36 214.73 107.36 107.37 0 107.37"/><rect class="d" x="60.17" y="60.17" width="94.4" height="94.4" transform="translate(-44.47 107.37) rotate(-45)"/><polygon class="e" points="107.36 174.11 76.06 71.92 40.62 107.37 107.36 174.11"/><rect class="f" x="158.86" y="95.75" width="23.3" height="23.3" transform="translate(-26 152.03) rotate(-45)"/><rect class="f" x="137.93" y="118.88" width="13.61" height="13.61" transform="translate(-46.48 139.18) rotate(-45.01)"/><rect class="g" x="154.41" y="74.74" width="13.61" height="13.61" transform="translate(-10.44 137.89) rotate(-45)"/></svg>