<svg xmlns="http://www.w3.org/2000/svg" viewBox="0 0 186.13 209.64"><defs><style>.a{fill:#9ddc57;}.b{fill:#2fa453;}.c{fill:#cde667;}.d{fill:#d8ed84;}.e,.f{fill:#fff;}.e{opacity:0.7;}</style></defs><title>Asset 1</title><polygon class="a" points="124.42 79.16 62.23 79.16 93.33 209.64 124.42 79.16"/><polygon class="b" points="186.13 79.16 93.33 209.64 124.42 79.16 186.13 79.16"/><polygon class="c" points="0 79.16 93.33 209.64 62.27 79.16 0 79.16"/><polygon class="c" points="124.42 79.16 62.23 79.16 93.33 0 124.42 79.16"/><polygon class="a" points="186.13 79.16 93.33 0 124.42 79.16 186.13 79.16"/><polygon class="d" points="0 79.16 93.33 0 62.27 79.16 0 79.16"/><rect class="e" x="55.21" y="70.32" width="23.3" height="23.3" transform="translate(-38.38 71.29) rotate(-45)"/><rect class="f" x="34.28" y="93.45" width="13.61" height="13.61" transform="translate(-58.86 58.43) rotate(-45.01)"/><rect class="f" x="50.76" y="49.31" width="13.61" height="13.61" transform="translate(-22.82 57.15) rotate(-45)"/></svg>